<?xml version="1.0" encoding="UTF-8" standalone="no"?>
<svg width="11px" height="8px" viewBox="0 0 11 8" version="1.1" xmlns="http://www.w3.org/2000/svg" xmlns:xlink="http://www.w3.org/1999/xlink" xmlns:sketch="http://www.bohemiancoding.com/sketch/ns">
    <title>layout-tile</title>
    <description>Created with Sketch (http://www.bohemiancoding.com/sketch)</description>
    <defs/>
    <g id="Page-1" stroke="none" stroke-width="1" fill="none" fill-rule="evenodd" sketch:type="MSPage">
        <path d="M0,0 L0,4 L3,4 L3,0 L0,0 Z M4,0 L4,2 L7,2 L7,0 L4,0 Z M8,0 L8,1 L11,1 L11,0 L8,0 Z M4,3 L4,6 L7,6 L7,3 L4,3 Z M8,2 L8,4 L11,4 L11,2 L8,2 Z M0,5 L0,8 L3,8 L3,5 L0,5 Z M4,7 L4,8 L7,8 L7,7 L4,7 Z M8,5 L8,8 L11,8 L11,5 L8,5 Z" id="Tile" fill="#FFFFFF" sketch:type="MSShapeGroup"/>
    </g>
</svg>